<?xml version="1.0" encoding="iso-8859-1"?>
<!-- Generator: Adobe Illustrator 19.0.0, SVG Export Plug-In . SVG Version: 6.00 Build 0)  -->
<svg version="1.1" id="Capa_1" xmlns="http://www.w3.org/2000/svg" xmlns:xlink="http://www.w3.org/1999/xlink" x="0px" y="0px"
	 viewBox="0 0 512 512" style="enable-background:new 0 0 512 512;" xml:space="preserve">
<g>
	<g>
		<path d="M436.897,46.185H75.093C33.687,46.185,0,79.877,0,121.288v167.805c0,38.007,28.378,69.512,65.054,74.435v92.246
			c0,4.06,2.447,7.721,6.197,9.275c1.242,0.515,2.546,0.765,3.84,0.765c2.612,0,5.18-1.021,7.101-2.94l98.677-98.677h256.027
			c41.412,0,75.103-33.692,75.103-75.103V121.288C512,79.876,478.308,46.185,436.897,46.185z M491.922,289.094
			c0,30.341-24.684,55.025-55.025,55.025H176.71c-2.662,0-5.216,1.058-7.099,2.94l-84.479,84.479v-77.38
			c0-5.545-4.495-10.039-10.039-10.039c-30.336,0-55.015-24.684-55.015-55.025V121.288c0-30.341,24.679-55.025,55.015-55.025
			h361.803c30.341,0,55.025,24.684,55.025,55.025V289.094z"/>
	</g>
</g>
<g>
	<g>
		<path d="M384.492,165.511c-21.877,0-39.675,17.803-39.675,39.685c0,21.877,17.799,39.675,39.675,39.675
			c21.882,0,39.685-17.799,39.685-39.675C424.177,183.314,406.374,165.511,384.492,165.511z M384.492,224.793
			c-10.805,0-19.597-8.791-19.597-19.597c0-10.811,8.791-19.607,19.597-19.607c10.811,0,19.607,8.795,19.607,19.607
			C404.099,216.001,395.303,224.793,384.492,224.793z"/>
	</g>
</g>
<g>
	<g>
		<path d="M256,165.511c-21.882,0-39.685,17.803-39.685,39.685c0,21.877,17.803,39.675,39.685,39.675
			c21.877,0,39.675-17.799,39.675-39.675C295.675,183.314,277.877,165.511,256,165.511z M256,224.793
			c-10.811,0-19.607-8.791-19.607-19.597c0-10.811,8.795-19.607,19.607-19.607c10.805,0,19.597,8.795,19.597,19.607
			C275.597,216.001,266.805,224.793,256,224.793z"/>
	</g>
</g>
<g>
	<g>
		<path d="M127.498,165.511c-21.883,0-39.685,17.803-39.685,39.685c0,21.877,17.802,39.675,39.685,39.675
			c21.882,0,39.685-17.799,39.685-39.675C167.183,183.314,149.38,165.511,127.498,165.511z M127.498,224.793
			c-10.811,0-19.607-8.791-19.607-19.597c0-10.811,8.795-19.607,19.607-19.607s19.607,8.795,19.607,19.607
			C147.105,216.001,138.309,224.793,127.498,224.793z"/>
	</g>
</g>
<g>
	<g>
		<path d="M403.679,96.381h-93.36c-5.545,0-10.039,4.495-10.039,10.039s4.495,10.039,10.039,10.039h93.36
			c5.545,0,10.039-4.495,10.039-10.039S409.224,96.381,403.679,96.381z"/>
	</g>
</g>
<g>
	<g>
		<path d="M441.726,96.381c-12.919,0-12.941,20.078,0,20.078C454.645,116.459,454.666,96.381,441.726,96.381z"/>
	</g>
</g>
<g>
</g>
<g>
</g>
<g>
</g>
<g>
</g>
<g>
</g>
<g>
</g>
<g>
</g>
<g>
</g>
<g>
</g>
<g>
</g>
<g>
</g>
<g>
</g>
<g>
</g>
<g>
</g>
<g>
</g>
</svg>
